<svg width="271" height="99" viewBox="0 0 271 99" fill="none" xmlns="http://www.w3.org/2000/svg">
<circle cx="135.5" cy="26" r="26" fill="white"/>
<path d="M154.873 20.3796C155.476 20.2048 155.826 19.573 155.619 18.9804C154.06 14.5133 151.055 10.6804 147.062 8.10146C142.751 5.31648 137.58 4.18107 132.499 4.90393C127.418 5.6268 122.768 8.15936 119.405 12.0361C116.041 15.9129 114.19 20.8733 114.192 26.0057C114.193 31.1381 116.047 36.0975 119.412 39.9724C122.778 43.8473 127.429 46.3773 132.51 47.0973C137.592 47.8174 142.763 46.6791 147.072 43.8917C151.063 41.3106 154.067 37.476 155.623 33.008C155.829 32.4153 155.479 31.7838 154.876 31.6092C154.273 31.4347 153.646 31.7834 153.436 32.3748C152.035 36.3173 149.369 39.6995 145.838 41.9833C141.988 44.4733 137.369 45.4902 132.829 44.847C128.29 44.2037 124.135 41.9436 121.128 38.482C118.122 35.0204 116.466 30.59 116.465 26.0051C116.463 21.4201 118.117 16.9888 121.121 13.5255C124.126 10.0623 128.28 7.79988 132.819 7.15412C137.358 6.50836 141.978 7.52265 145.829 10.0106C149.361 12.2924 152.029 15.6732 153.433 19.6148C153.643 20.2061 154.27 20.5545 154.873 20.3796Z" fill="#1DB954"/>
<path d="M139.807 12.9249L126.432 26.8456C125.946 27.3508 126.304 28.1913 127.005 28.1913H132.153C132.421 28.1913 132.612 28.4506 132.533 28.7064L129.705 37.8404C129.457 38.6414 130.458 39.2309 131.038 38.6258L144.57 24.522C145.055 24.0166 144.697 23.1767 143.996 23.1767H138.841C138.574 23.1767 138.384 22.9202 138.46 22.6652L141.141 13.7036C141.381 12.9045 140.385 12.3235 139.807 12.9249Z" fill="#1DB954"/>
<path d="M231.051 90.2827C229.448 90.2827 227.93 90.0277 226.497 89.5176C225.064 88.9832 223.837 88.1938 222.817 87.1493L224.311 84.4531C225.404 85.4247 226.497 86.1291 227.59 86.5664C228.707 87.0036 229.812 87.2222 230.905 87.2222C232.023 87.2222 232.934 87.0157 233.638 86.6028C234.342 86.1656 234.695 85.534 234.695 84.7082C234.695 84.1009 234.513 83.6516 234.148 83.3601C233.784 83.0686 233.249 82.8135 232.545 82.5949C231.865 82.3763 231.039 82.1334 230.067 81.8662C228.707 81.4533 227.566 81.0282 226.643 80.591C225.72 80.1295 225.027 79.5708 224.566 78.915C224.104 78.2592 223.873 77.4211 223.873 76.401C223.873 75.1622 224.189 74.1056 224.821 73.2311C225.452 72.3567 226.327 71.6887 227.444 71.2272C228.586 70.7657 229.897 70.5349 231.379 70.5349C232.764 70.5349 234.039 70.7535 235.205 71.1907C236.395 71.6037 237.439 72.2595 238.338 73.1582L236.626 75.818C235.776 75.0407 234.901 74.4699 234.002 74.1056C233.128 73.7412 232.181 73.559 231.16 73.559C230.578 73.559 230.019 73.6319 229.484 73.7776C228.95 73.8991 228.501 74.142 228.136 74.5063C227.796 74.8464 227.626 75.3322 227.626 75.9637C227.626 76.4738 227.772 76.8868 228.064 77.2025C228.355 77.5183 228.792 77.7855 229.375 78.0041C229.958 78.2227 230.675 78.4656 231.525 78.7328C233.007 79.17 234.27 79.6073 235.314 80.0445C236.359 80.4574 237.16 81.0039 237.719 81.6841C238.302 82.3399 238.593 83.2508 238.593 84.4167C238.593 86.2627 237.901 87.708 236.516 88.7525C235.156 89.7727 233.334 90.2827 231.051 90.2827Z" fill="white"/>
<path d="M217.646 89.916L211.525 81.1351L208.392 84.1228V89.916H204.384V63.3184H208.392V80.0785L217.209 70.8969H221.508L214.112 78.8762L221.909 89.916H217.646Z" fill="white"/>
<path d="M201.468 74.322C199.913 74.3463 198.529 74.6985 197.314 75.3786C196.124 76.0587 195.274 77.0182 194.764 78.257V89.9162H190.756V70.8606H194.472V75.1236C195.128 73.8119 195.99 72.7674 197.059 71.9901C198.128 71.1886 199.257 70.7513 200.448 70.6785C200.691 70.6785 200.885 70.6785 201.031 70.6785C201.201 70.6785 201.346 70.6906 201.468 70.7149V74.322Z" fill="white"/>
<path d="M177.401 90.2809C175.895 90.2809 174.547 90.0259 173.356 89.5158C172.166 88.9814 171.134 88.2527 170.259 87.3297C169.409 86.4067 168.753 85.3622 168.292 84.1963C167.83 83.006 167.6 81.743 167.6 80.407C167.6 79.071 167.83 77.808 168.292 76.6177C168.753 75.4275 169.409 74.3831 170.259 73.4843C171.134 72.5613 172.166 71.8447 173.356 71.3347C174.571 70.8003 175.919 70.5331 177.401 70.5331C178.882 70.5331 180.218 70.8003 181.408 71.3347C182.623 71.8447 183.655 72.5613 184.505 73.4843C185.38 74.3831 186.048 75.4275 186.509 76.6177C186.971 77.808 187.202 79.071 187.202 80.407C187.202 81.743 186.971 83.006 186.509 84.1963C186.048 85.3622 185.38 86.4067 184.505 87.3297C183.655 88.2527 182.623 88.9814 181.408 89.5158C180.218 90.0259 178.882 90.2809 177.401 90.2809ZM171.717 80.4434C171.717 81.6579 171.972 82.751 172.482 83.7226C172.992 84.6942 173.672 85.4593 174.522 86.018C175.372 86.5767 176.332 86.856 177.401 86.856C178.445 86.856 179.392 86.5767 180.243 86.018C181.117 85.435 181.809 84.6578 182.319 83.6862C182.829 82.6903 183.084 81.5972 183.084 80.407C183.084 79.1925 182.829 78.0994 182.319 77.1278C181.809 76.1562 181.117 75.3911 180.243 74.8324C179.392 74.2495 178.445 73.958 177.401 73.958C176.332 73.958 175.372 74.2495 174.522 74.8324C173.672 75.4154 172.992 76.1927 172.482 77.1643C171.972 78.1116 171.717 79.2046 171.717 80.4434Z" fill="white"/>
<path d="M162.99 70.8618H166.815L158.8 89.9174H155.375L151.95 81.3187L148.525 89.9174H145.1L137.048 70.8618H140.874L146.995 86.0188L149.691 78.9868L146.412 70.8983H149.8L151.95 76.8372L154.063 70.8983H157.452L154.209 78.9868L156.905 86.0188L162.99 70.8618Z" fill="white"/>
<path d="M126.735 90.2809C125.253 90.2809 123.905 90.0259 122.691 89.5158C121.5 88.9814 120.468 88.2648 119.594 87.3661C118.719 86.4431 118.039 85.3986 117.553 84.2327C117.092 83.0425 116.861 81.7794 116.861 80.4434C116.861 78.646 117.274 77.0064 118.1 75.5247C118.926 74.0187 120.079 72.8163 121.561 71.9176C123.043 70.9946 124.779 70.5331 126.771 70.5331C128.763 70.5331 130.475 70.9946 131.909 71.9176C133.366 72.8163 134.495 74.0066 135.297 75.4883C136.099 76.97 136.499 78.561 136.499 80.2613C136.499 80.5527 136.487 80.8321 136.463 81.0993C136.439 81.3422 136.414 81.5486 136.39 81.7187H121.124C121.197 82.836 121.5 83.8198 122.035 84.6699C122.593 85.4958 123.298 86.1516 124.148 86.6374C124.998 87.0989 125.909 87.3297 126.881 87.3297C127.949 87.3297 128.957 87.0625 129.905 86.5281C130.876 85.9937 131.532 85.2893 131.872 84.4149L135.297 85.3986C134.884 86.3216 134.253 87.1596 133.402 87.9126C132.577 88.6413 131.593 89.2243 130.451 89.6615C129.31 90.0745 128.071 90.2809 126.735 90.2809ZM121.015 79.0589H132.528C132.455 77.9658 132.139 77.0064 131.581 76.1805C131.046 75.3304 130.354 74.6745 129.504 74.213C128.678 73.7272 127.755 73.4843 126.735 73.4843C125.739 73.4843 124.816 73.7272 123.966 74.213C123.14 74.6745 122.46 75.3304 121.925 76.1805C121.391 77.0064 121.087 77.9658 121.015 79.0589Z" fill="white"/>
<path d="M102.727 90.0987C101.44 90.0987 100.262 89.8437 99.1932 89.3336C98.1245 88.7992 97.2014 88.0827 96.4242 87.1839C95.6712 86.2852 95.0761 85.2529 94.6388 84.0869C94.2259 82.921 94.0194 81.6944 94.0194 80.407C94.0194 79.0468 94.238 77.7715 94.6753 76.5813C95.1125 75.3911 95.7197 74.3466 96.497 73.4479C97.2986 72.5249 98.2338 71.8083 99.3025 71.2982C100.371 70.7881 101.562 70.5331 102.873 70.5331C104.403 70.5331 105.739 70.8974 106.881 71.6261C108.047 72.3548 109.006 73.3021 109.759 74.4681V70.861H113.294V89.37C113.294 91.2161 112.844 92.7828 111.946 94.0702C111.071 95.3575 109.869 96.3413 108.338 97.0214C106.808 97.7015 105.084 98.0416 103.165 98.0416C101.051 98.0416 99.3025 97.6772 97.918 96.9485C96.5335 96.2198 95.3554 95.2239 94.3838 93.9609L96.6428 91.8476C97.3715 92.8678 98.3066 93.6451 99.4483 94.1795C100.614 94.7139 101.853 94.981 103.165 94.981C104.258 94.981 105.266 94.7746 106.189 94.3617C107.136 93.973 107.889 93.3536 108.448 92.5035C109.006 91.6776 109.286 90.6331 109.286 89.37V86.4552C108.606 87.5969 107.67 88.4956 106.48 89.1514C105.29 89.783 104.039 90.0987 102.727 90.0987ZM104.039 86.856C104.646 86.856 105.229 86.7589 105.788 86.5645C106.347 86.3459 106.857 86.0666 107.318 85.7265C107.804 85.3622 108.217 84.9614 108.557 84.5242C108.897 84.0627 109.14 83.5769 109.286 83.0668V78.0752C108.97 77.2493 108.521 76.5327 107.938 75.9255C107.355 75.2939 106.699 74.8081 105.97 74.4681C105.241 74.128 104.501 73.958 103.748 73.958C102.873 73.958 102.084 74.1523 101.379 74.5409C100.699 74.9053 100.116 75.4032 99.6304 76.0348C99.1446 76.642 98.7682 77.3343 98.501 78.1116C98.2338 78.8889 98.1002 79.6904 98.1002 80.5163C98.1002 81.3907 98.2459 82.2045 98.5374 82.9575C98.8532 83.7105 99.2782 84.3906 99.8126 84.9978C100.347 85.5808 100.979 86.0423 101.707 86.3824C102.436 86.6981 103.213 86.856 104.039 86.856Z" fill="white"/>
<path d="M92.5536 74.322C90.999 74.3463 89.6145 74.6985 88.4 75.3786C87.2098 76.0587 86.3596 77.0182 85.8495 78.257V89.9162H81.8416V70.8606H85.558V75.1236C86.2139 73.8119 87.0762 72.7674 88.1449 71.9901C89.2137 71.1886 90.3432 70.7513 91.5334 70.6785C91.7763 70.6785 91.9706 70.6785 92.1164 70.6785C92.2864 70.6785 92.4321 70.6906 92.5536 70.7149V74.322Z" fill="white"/>
<path d="M59.8918 84.342C59.8918 83.1275 60.2318 82.0709 60.9119 81.1721C61.6164 80.2491 62.5758 79.5447 63.7903 79.0589C65.0048 78.5488 66.4136 78.2938 68.0168 78.2938C68.8669 78.2938 69.7292 78.3545 70.6037 78.4759C71.5024 78.5974 72.2918 78.7917 72.972 79.0589V77.8565C72.972 76.5206 72.5712 75.4761 71.7696 74.7231C70.968 73.9701 69.8143 73.5936 68.3083 73.5936C67.2395 73.5936 66.2315 73.788 65.2842 74.1766C64.3368 74.5409 63.3288 75.0632 62.26 75.7433L60.9119 73.0471C62.175 72.197 63.4381 71.5654 64.7012 71.1525C65.9886 70.7395 67.3367 70.5331 68.7455 70.5331C71.2959 70.5331 73.2999 71.2132 74.7573 72.5734C76.239 73.9094 76.9798 75.8162 76.9798 78.2938V85.3986C76.9798 85.8601 77.0527 86.188 77.1984 86.3824C77.3685 86.5767 77.6478 86.686 78.0364 86.7103V89.9166C77.6721 89.9894 77.3442 90.038 77.0527 90.0623C76.7612 90.0866 76.5183 90.0987 76.324 90.0987C75.4738 90.0987 74.8302 89.8923 74.3929 89.4793C73.9557 89.0664 73.7007 88.5806 73.6278 88.0219L73.5185 86.9289C72.6926 87.9977 71.636 88.8235 70.3486 89.4065C69.0613 89.9894 67.7617 90.2809 66.4501 90.2809C65.187 90.2809 64.0575 90.0259 63.0616 89.5158C62.0657 88.9814 61.2884 88.2648 60.7298 87.3661C60.1711 86.4674 59.8918 85.4593 59.8918 84.342ZM72.0247 85.5079C72.3161 85.1921 72.5469 84.8764 72.7169 84.5606C72.887 84.2448 72.972 83.9655 72.972 83.7226V81.5365C72.2918 81.2693 71.5753 81.075 70.8223 80.9535C70.0693 80.8078 69.3285 80.7349 68.5998 80.7349C67.1423 80.7349 65.9521 81.0264 65.0291 81.6094C64.1304 82.1923 63.681 82.9939 63.681 84.0141C63.681 84.5727 63.8267 85.1071 64.1182 85.6172C64.434 86.1273 64.8712 86.5402 65.4299 86.856C66.0129 87.1718 66.7294 87.3297 67.5796 87.3297C68.454 87.3297 69.292 87.1596 70.0936 86.8196C70.8952 86.4795 71.5388 86.0423 72.0247 85.5079Z" fill="white"/>
<path d="M56.6244 89.916H52.6166V79.2405C52.6166 77.5159 52.3008 76.2285 51.6692 75.3784C51.0377 74.5282 50.1511 74.1032 49.0095 74.1032C48.3051 74.1032 47.5764 74.2975 46.8234 74.6861C46.0704 75.0748 45.4024 75.6091 44.8194 76.2893C44.2365 76.9451 43.8114 77.7102 43.5442 78.5847V89.916H39.5363V63.3184H43.5442V74.6861C44.2729 73.3987 45.2688 72.3907 46.5319 71.662C47.795 70.909 49.1552 70.5325 50.6126 70.5325C51.8028 70.5325 52.7866 70.739 53.5639 71.1519C54.3412 71.5648 54.9484 72.1357 55.3856 72.8644C55.8471 73.5688 56.1629 74.3946 56.3329 75.342C56.5273 76.265 56.6244 77.2487 56.6244 78.2932V89.916Z" fill="white"/>
<path d="M13.4994 76.8006C13.4994 75.2218 13.7787 73.6793 14.3374 72.1734C14.896 70.6431 15.7098 69.2586 16.7785 68.0198C17.8716 66.7567 19.1954 65.7608 20.7499 65.0321C22.3045 64.2791 24.0655 63.9026 26.033 63.9026C28.3649 63.9026 30.381 64.437 32.0813 65.5057C33.7816 66.5502 35.0447 67.8983 35.8705 69.55L32.6642 71.6997C32.1784 70.6552 31.559 69.8294 30.806 69.2221C30.0773 68.6149 29.2758 68.1898 28.4013 67.9469C27.5512 67.704 26.7132 67.5825 25.8873 67.5825C24.5271 67.5825 23.3368 67.8619 22.3167 68.4205C21.2965 68.9549 20.4342 69.6715 19.7298 70.5702C19.0496 71.4689 18.5274 72.477 18.1631 73.5943C17.823 74.7117 17.653 75.829 17.653 76.9464C17.653 78.1852 17.8594 79.3875 18.2724 80.5534C18.6853 81.6951 19.2561 82.7153 19.9848 83.614C20.7378 84.4884 21.6244 85.1807 22.6446 85.6908C23.6648 86.2009 24.7821 86.4559 25.9966 86.4559C26.8225 86.4559 27.6848 86.3102 28.5835 86.0187C29.4822 85.7272 30.3081 85.2779 31.0611 84.6706C31.8384 84.0391 32.4456 83.2132 32.8828 82.193L36.2713 84.1241C35.7369 85.4115 34.8989 86.5045 33.7573 87.4032C32.6399 88.302 31.3769 88.9821 29.968 89.4436C28.5835 89.9051 27.2111 90.1359 25.8509 90.1359C24.0291 90.1359 22.3652 89.7594 20.8593 89.0064C19.3533 88.2291 18.0537 87.2089 16.9607 85.9458C15.8676 84.6585 15.0175 83.2253 14.4102 81.6465C13.803 80.0433 13.4994 78.4281 13.4994 76.8006Z" fill="white"/>
<path d="M256.05 78.1789V72.7319L253.8 76.8656H253.089L250.829 72.7319V78.1789H249.623V70.5359H250.915L253.445 75.2078L255.974 70.5359H257.266V78.1789H256.05Z" fill="white"/>
<path d="M248.598 71.6015H246.058V78.1788H244.841V71.6015H242.29V70.5358H248.598V71.6015Z" fill="white"/>
</svg>
